<?xml version="1.0" encoding="UTF-8"?>
<svg id="Layer_2" xmlns="http://www.w3.org/2000/svg" version="1.1" viewBox="0 0 1505.2 771.6">
  <!-- Generator: Adobe Illustrator 29.3.1, SVG Export Plug-In . SVG Version: 2.1.0 Build 151)  -->
  <defs>
    <style>
      .st0 {
        stroke: #f04923;
        stroke-miterlimit: 10;
        stroke-width: 5px;
      }

      .st0, .st1 {
        fill: #fff;
      }
    </style>
  </defs>
  <g id="Layer_1-2">
    <g>
      <path class="st0" d="M1145.9,436.1c33.6,0,61.9-2,84.9-6,23-4,41.5-10.5,55.5-19.6,13.9-9.1,23.9-20.8,29.9-35s9-31.6,9-52.1V11.9h177.5v311.5c0,173-118.9,259.5-356.8,259.5h-213.4l115.2-146.8h98.2ZM901.4,203.9l-268,379h-286.8c-49.5,0-95.3-7.4-137.4-22.2-42.1-14.8-78.4-35.1-108.8-61-30.4-25.9-54.3-56.6-71.7-92.2-17.4-35.6-26-74.1-26-115.6s8.7-79.5,26-113.9c17.4-34.4,41.3-64,71.7-88.8,30.4-24.8,66.7-43.8,108.8-57.2,42.1-13.4,87.9-20,137.4-20h400.3l-113.5,148.5h-286.8c-23.9,0-46.1,3.4-66.6,10.2s-38.1,16.4-52.9,28.6c-14.8,12.2-26.4,26.9-35,44-8.5,17.1-12.8,35.9-12.8,56.3s4.1,39.1,12.4,55.9c8.2,16.8,19.9,31.2,35,43.1s32.9,21.2,53.3,27.7c20.5,6.5,42.7,9.8,66.6,9.8h181.8L790.5,66.5c12-16.5,27-31.3,45.2-44.4,17.5-12.6,39.4-19.1,65.7-19.6h3.4c26.7,0,49.1,6.1,67,18.3,17.9,12.2,33.2,27.5,45.7,45.7l204.4,295.8-2.8.5c-23.7,4.1-49.2,5-73.3,5h-131.4l-.9,1.1c-3.3-4.8-6.6-9.4-9.8-13.9l-102.4-151.1h0ZM710.2,582.9l106.7-146.8h164.1l-115.2,146.8h-155.6ZM960.9,436.1h-59.5,59.5Z"/>
      <g>
        <path class="st1" d="M49.5,768.4c-3.1,1.5-9.3,3.1-17.2,3.1-18.4,0-32.3-11.6-32.3-33s13.9-34.3,34.1-34.3,13.3,1.7,15.5,2.9l-2,6.9c-3.2-1.5-7.8-2.7-13.2-2.7-15.3,0-25.5,9.8-25.5,26.9s9.2,26.3,25.1,26.3,10.4-1.1,13.8-2.7l1.7,6.7h0Z"/>
        <path class="st1" d="M87.9,705.2v27.3h31.6v-27.3h8.5v65.3h-8.5v-30.6h-31.6v30.6h-8.4v-65.3s8.4,0,8.4,0Z"/>
        <path class="st1" d="M162.1,706.1c4.3-.9,10.4-1.4,16.2-1.4,9,0,14.8,1.7,18.9,5.3,3.3,2.9,5.1,7.4,5.1,12.4,0,8.6-5.4,14.3-12.3,16.7v.3c5,1.8,8,6.4,9.6,13.2,2.1,9.1,3.7,15.4,5,17.9h-8.7c-1.1-1.8-2.5-7.5-4.4-15.6-1.9-9-5.4-12.4-13.1-12.7h-7.9v28.3h-8.4v-64.5h0ZM170.5,735.8h8.6c9,0,14.7-4.9,14.7-12.4s-6.1-12.1-15-12.2c-4.1,0-7,.4-8.3.8v23.8h0Z"/>
        <path class="st1" d="M242,705.2v65.3h-8.4v-65.3h8.4Z"/>
        <path class="st1" d="M275,760.3c3.8,2.3,9.3,4.3,15.1,4.3,8.6,0,13.7-4.6,13.7-11.2s-3.5-9.6-12.3-13c-10.7-3.8-17.2-9.3-17.2-18.5s8.4-17.7,21.1-17.7,11.5,1.5,14.4,3.2l-2.3,6.9c-2.1-1.2-6.5-3.1-12.4-3.1-8.9,0-12.3,5.3-12.3,9.8s4,9.1,13,12.6c11,4.3,16.7,9.6,16.7,19.2s-7.5,18.8-22.9,18.8-13.2-1.8-16.7-4.2l2.1-7.1h0Z"/>
        <path class="st1" d="M355.7,712.4h-19.9v-7.2h48.4v7.2h-20v58.2h-8.5v-58.2h0Z"/>
        <path class="st1" d="M464.1,737.2c0,22.5-13.7,34.4-30.3,34.4s-29.4-13.4-29.4-33.2,12.9-34.3,30.3-34.3,29.4,13.7,29.4,33h0ZM413.4,738.3c0,14,7.6,26.5,20.8,26.5s20.9-12.3,20.9-27.1-6.8-26.6-20.8-26.6-20.9,12.9-20.9,27.2h0Z"/>
        <path class="st1" d="M494.4,706c4.1-.7,9.4-1.3,16.2-1.3s14.4,1.9,18.3,5.4c3.6,3.1,5.7,7.8,5.7,13.7s-1.7,10.6-5,14c-4.5,4.8-11.7,7.2-20,7.2s-4.9,0-6.8-.6v26.2h-8.4v-64.5h0ZM502.8,737.5c1.8.5,4.2.7,7,.7,10.2,0,16.4-4.9,16.4-14s-6.1-12.8-15.4-12.8-6.5.3-8,.7v25.4Z"/>
        <path class="st1" d="M573.8,705.2v27.3h31.6v-27.3h8.5v65.3h-8.5v-30.6h-31.6v30.6h-8.4v-65.3h8.4Z"/>
        <path class="st1" d="M681.8,739.9h-25.4v23.5h28.3v7.1h-36.7v-65.3h35.3v7.1h-26.8v20.6h25.4v7Z"/>
        <path class="st1" d="M715,706.1c4.3-.9,10.4-1.4,16.2-1.4,9,0,14.8,1.7,18.9,5.3,3.3,2.9,5.1,7.4,5.1,12.4,0,8.6-5.4,14.3-12.3,16.7v.3c5,1.8,8,6.4,9.6,13.2,2.1,9.1,3.7,15.4,5,17.9h-8.7c-1.1-1.8-2.5-7.5-4.4-15.6-1.9-9-5.4-12.4-13.1-12.7h-8v28.3h-8.4v-64.5h0ZM723.4,735.8h8.6c9,0,14.7-4.9,14.7-12.4s-6.1-12.1-15-12.2c-4.1,0-7,.4-8.3.8v23.8h0Z"/>
        <path class="st1" d="M837,750l-6.8,20.5h-8.7l22.2-65.3h10.2l22.3,65.3h-9l-7-20.5h-23.2ZM858.5,743.4l-6.4-18.8c-1.5-4.3-2.4-8.1-3.4-11.9h-.2c-1,3.9-2,7.8-3.3,11.8l-6.4,18.9h19.7Z"/>
        <path class="st1" d="M905.2,705.2h8.4v58.2h27.9v7.1h-36.3v-65.3h0Z"/>
        <path class="st1" d="M980.9,750l-6.8,20.5h-8.7l22.2-65.3h10.2l22.3,65.3h-9l-7-20.5h-23.2ZM1002.3,743.4l-6.4-18.8c-1.5-4.3-2.4-8.1-3.4-11.9h-.2c-1,3.9-2,7.8-3.3,11.8l-6.4,18.9h19.7Z"/>
        <path class="st1" d="M1049,770.5v-65.3h9.2l20.9,33c4.8,7.7,8.6,14.5,11.7,21.2h.2c-.8-8.8-1-16.8-1-26.9v-27.3h7.9v65.3h-8.5l-20.7-33.2c-4.6-7.3-8.9-14.7-12.2-21.8h-.3c.5,8.3.7,16.2.7,27v27.9h-8Z"/>
        <path class="st1" d="M1185.5,705.2h8.4v43.7c0,17.3-8.5,22.7-19.8,22.7s-6.9-.7-9-1.5l1.3-6.9c1.7.7,4.3,1.3,7.1,1.3,7.6,0,12-3.4,12-16.2v-43Z"/>
        <path class="st1" d="M1283.2,737.2c0,22.5-13.7,34.4-30.3,34.4s-29.4-13.4-29.4-33.2,12.9-34.3,30.3-34.3,29.4,13.7,29.4,33h0ZM1232.5,738.3c0,14,7.6,26.5,20.8,26.5s20.9-12.3,20.9-27.1-6.8-26.6-20.8-26.6-20.9,12.9-20.9,27.2h0Z"/>
        <path class="st1" d="M1313.5,770.5v-65.3h9.2l20.9,33c4.8,7.7,8.6,14.5,11.7,21.2h.2c-.8-8.8-1-16.8-1-26.9v-27.3h7.9v65.3h-8.5l-20.7-33.2c-4.6-7.3-8.9-14.7-12.2-21.8h-.3c.5,8.3.7,16.2.7,27v27.9h-8Z"/>
        <path class="st1" d="M1430.5,739.9h-25.4v23.5h28.3v7.1h-36.7v-65.3h35.3v7.1h-26.8v20.6h25.4v7h0Z"/>
        <path class="st1" d="M1462.6,760.3c3.8,2.3,9.3,4.3,15.1,4.3,8.6,0,13.7-4.6,13.7-11.2s-3.5-9.6-12.3-13c-10.7-3.8-17.2-9.3-17.2-18.5s8.4-17.7,21.1-17.7,11.5,1.5,14.4,3.2l-2.3,6.9c-2.1-1.2-6.5-3.1-12.4-3.1-8.9,0-12.3,5.3-12.3,9.8s4,9.1,13,12.6c11.1,4.3,16.7,9.6,16.7,19.2s-7.5,18.8-22.9,18.8-13.2-1.8-16.7-4.2l2.1-7.1h0Z"/>
      </g>
    </g>
  </g>
</svg>