<?xml version="1.0" encoding="UTF-8"?>
<svg id="Layer_2" data-name="Layer 2" xmlns="http://www.w3.org/2000/svg" viewBox="0 0 1500.01 580.42">
  <defs>
    <style>
      .cls-1 {
        fill: #ff3e00;
      }
    </style>
  </defs>
  <g id="Layer_2-2" data-name="Layer 2">
    <g id="Layer_1-2" data-name="Layer 1-2">
      <path class="cls-1" d="M1143.23,433.6c33.57,0,61.88-1.99,84.93-5.97,23.04-3.99,41.54-10.53,55.48-19.64,13.94-9.1,23.89-20.77,29.87-34.99s8.96-31.58,8.96-52.07V9.4h177.54v311.54c0,172.98-118.92,259.48-356.78,259.48h-213.39l115.23-146.81h98.16ZM898.79,201.44l-268.01,378.97h-286.79c-49.51,0-95.32-7.4-137.43-22.19-42.1-14.8-78.38-35.14-108.83-61.03-30.43-25.89-54.34-56.62-71.7-92.18C8.68,369.44,0,330.89,0,289.36s8.68-79.53,26.03-113.95c17.36-34.43,41.26-64.03,71.7-88.77,30.44-24.75,66.73-43.81,108.83-57.19,42.11-13.37,87.92-20.05,137.43-20.05h400.32l-113.53,148.52h-286.79c-23.9,0-46.09,3.42-66.58,10.24s-38.13,16.36-52.93,28.59c-14.79,12.24-26.45,26.89-34.99,43.96-8.54,17.07-12.8,35.85-12.8,56.33s4.12,39.11,12.38,55.9c8.25,16.78,19.91,31.16,34.99,43.11s32.86,21.2,53.35,27.74c20.47,6.54,42.67,9.81,66.58,9.81h181.76L787.82,64.02c11.96-16.49,27.04-31.29,45.25-44.38C850.53,7.09,872.44.56,898.79.03l3.42-.03c26.74,0,49.08,6.12,67,18.36,17.92,12.23,33.15,27.45,45.67,45.66l204.41,295.84-2.76.5c-23.74,4.1-49.25,4.97-73.29,4.97h-131.37l-.87,1.11c-3.3-4.75-6.57-9.4-9.78-13.92l-102.42-151.08h0ZM707.6,580.42l106.69-146.81h164.09l-115.23,146.81h-155.55ZM958.28,433.6h-59.49,59.49Z"/>
    </g>
  </g>
</svg>